<?xml version="1.0" encoding="UTF-8" standalone="no"?>
<svg
   xmlns:dc="http://purl.org/dc/elements/1.1/"
   xmlns:cc="http://creativecommons.org/ns#"
   xmlns:rdf="http://www.w3.org/1999/02/22-rdf-syntax-ns#"
   xmlns:svg="http://www.w3.org/2000/svg"
   xmlns="http://www.w3.org/2000/svg"
   width="268"
   height="182"
   viewBox="0 0 268 182.00001"
   version="1.1"
   id="svg8">
  <defs
     id="defs2" />
  <metadata
     id="metadata5">
    <rdf:RDF>
      <cc:Work
         rdf:about="">
        <dc:format>image/svg+xml</dc:format>
        <dc:type
           rdf:resource="http://purl.org/dc/dcmitype/StillImage" />
        <dc:title></dc:title>
      </cc:Work>
    </rdf:RDF>
  </metadata>
  <g
     id="layer1"
     transform="translate(-215.85715,-704.07141)">
    <g
       id="g962"
       transform="translate(7.00016,190)">
      <ellipse
         style="fill:#ff3a00;fill-opacity:1;stroke:none;stroke-width:1;stroke-linecap:round;stroke-linejoin:round"
         id="ellipse930"
         cx="342.85709"
         cy="551.32141"
         rx="29.25"
         ry="29.249996" />
      <path
         id="path932"
         style="fill:#02007f;fill-opacity:1;stroke:none;stroke-width:0.999999;stroke-linecap:round;stroke-linejoin:round;stroke-opacity:0.3"
         d="m 317.85707,599.57147 c -1e-5,-8.25 5.74999,-14.99678 14,-15.00006 h 36.00002 l 10e-6,88.49999 c 0,8.25002 -6.75001,14.99996 -15.00002,14.99996 h -35 z" />
      <path
         id="path934"
         style="fill:#02007f;fill-opacity:1;stroke:none;stroke-width:0.999999;stroke-linecap:round;stroke-linejoin:round"
         d="m 231.85715,608.07141 h 81 l -0.004,5.14404 H 272.353 c -4.25001,0 -7.50001,3.25 -7.50001,7.5 0,4.25 3.25004,7.51774 7.50001,7.5 h 40.49999 l 0.004,59.85596 h -81 c -8.24999,0 -15,-6.74999 -15,-15.00001 v -49.99999 c 0,-8.25 6.75001,-15 15,-15 z" />
      <path
         id="path956"
         style="fill:#02007f;fill-opacity:1;stroke:none;stroke-width:0.999999;stroke-linecap:round;stroke-linejoin:round"
         d="m 453.857,664.57141 h -81 l 0.004,-5.14404 h 40.50015 c 4.25001,0 7.50001,-3.25 7.50001,-7.5 0,-4.25 -3.25004,-7.51774 -7.50001,-7.5 h -40.49999 l -0.004,-59.85596 h 81 c 8.24999,0 15,6.74999 15,15.00001 v 49.99999 c 0,8.25 -6.75001,15 -15,15 z" />
    </g>
  </g>
</svg>
